<svg width="5000" height="1204" viewBox="0 0 5000 1204" fill="none" xmlns="http://www.w3.org/2000/svg">
<path d="M4668.45 1203.56C4513.46 1203.56 4385.42 1132.12 4347.68 974.434H4508.06C4535.02 1036.43 4587.58 1064.73 4668.45 1064.73C4777.62 1064.73 4839.62 1012.17 4839.62 882.785V799.224C4799.18 872.003 4729.1 911.089 4641.49 911.089C4487.85 911.089 4342.29 811.354 4342.29 574.145V235.854H4502.67V574.145C4502.67 700.836 4570.06 761.486 4671.14 761.486C4769.53 761.486 4839.62 698.141 4839.62 574.145V235.854H5000V878.742C5000 1110.56 4853.09 1203.56 4668.45 1203.56Z" fill="#CCFF33"/>
<path d="M4028.81 919.174C3858.99 919.174 3752.52 828.873 3748.48 704.878H3910.21C3911.56 749.355 3950.64 779.006 4028.81 779.006C4111.03 779.006 4146.07 745.311 4146.07 704.878C4146.07 653.663 4086.77 646.924 4015.34 637.489C3912.91 624.012 3761.96 606.491 3761.96 443.41C3761.96 307.285 3865.73 218.332 4026.12 218.332C4189.2 218.332 4288.93 309.981 4292.98 427.237H4133.94C4129.9 386.804 4092.16 358.5 4028.81 358.5C3958.73 358.5 3923.69 392.195 3923.69 431.28C3923.69 482.496 3984.34 490.582 4055.77 500.017C4144.72 512.147 4307.8 529.668 4307.8 695.444C4307.8 830.221 4198.63 919.174 4028.81 919.174Z" fill="#CCFF33"/>
<path d="M1988.12 919.181C1835.82 919.181 1732.04 832.924 1732.04 660.409V0H1794.04V235.86H2206.45V292.467H1794.04V660.409C1794.04 795.186 1870.86 861.227 1988.12 861.227C2106.72 861.227 2183.54 796.534 2183.54 660.409V648.279H2242.84V660.409C2242.84 832.924 2140.41 919.181 1988.12 919.181Z" fill="#020202"/>
<path d="M1337.32 919.174C1127.07 919.174 978.815 770.919 978.815 568.753C978.815 366.587 1127.07 218.332 1337.32 218.332C1547.57 218.332 1694.48 366.587 1694.48 568.753V584.926H1042.16C1048.9 745.311 1166.16 861.22 1337.32 861.22C1458.62 861.22 1551.62 805.961 1598.79 714.312H1666.18C1614.96 838.308 1493.66 919.174 1337.32 919.174ZM1043.51 528.32H1629.79C1612.27 377.369 1496.36 276.286 1337.32 276.286C1176.94 276.286 1061.03 378.717 1043.51 528.32Z" fill="#020202"/>
<path d="M469.023 919.18C194.078 919.18 0 725.101 0 460.937C0 196.774 194.078 2.69434 469.023 2.69434C681.97 2.69434 847.746 119.951 911.091 296.509H838.311C780.357 156.34 642.885 63.3441 469.023 63.3441C231.816 63.3441 66.0406 231.816 66.0406 460.937C66.0406 690.059 231.816 858.53 469.023 858.53C680.622 858.53 836.963 731.839 867.962 535.065H413.765V474.415H936.698V502.718C917.829 745.317 729.142 919.18 469.023 919.18Z" fill="#020202"/>
<path d="M3307.77 219.976C3334.03 215.4 3401.84 216.773 3427.64 222.492C3465.54 230.728 3513.72 250.174 3542.72 268.934C3609.16 311.486 3662.14 379.432 3687.02 453.555C3700.04 492.675 3704.6 526.762 3703.23 572.517C3703.09 576.947 3702.9 581.255 3702.66 585.454V905.885H3544.72V853.54C3511.89 875.181 3476.32 890.034 3434.49 900.121C3402.3 907.899 3343.39 909.958 3309.82 904.696C3236.3 892.8 3165.06 855.968 3101.59 796.716L3082.86 779.1L3090.86 768.348C3108.44 745.241 3142.69 692.165 3157.07 665.856L3172.37 637.946L3195.43 661.968C3223.97 691.937 3250.91 712.527 3280.37 726.939C3312.56 742.725 3327.18 746.156 3360.28 745.928C3392.93 745.928 3413.26 741.123 3440.66 727.168C3477.64 708.637 3505.5 680.498 3523.54 643.437C3538.38 612.781 3542.49 594.936 3542.49 562.222C3542.49 530.651 3538.38 512.349 3524.91 483.295C3501.16 432.736 3458.47 397.733 3402.52 382.405C3379.92 376.228 3338.14 376.686 3315.07 383.32C3253.65 400.936 3190.18 455.385 3136.75 536.828C3128.3 549.411 3111.86 578.236 3100.22 600.427C3076.47 646.41 3058.2 676.38 3034.46 708.408C2951.57 820.736 2854.99 887.081 2749.5 904.468C2717.08 909.958 2656.12 907.671 2623.92 900.121C2558.16 884.564 2505.19 855.053 2458.16 808.154C2429.39 779.558 2414.54 760.111 2397.88 729.913C2366.59 673.635 2352.67 613.696 2355.18 548.495C2358.83 458.358 2391.94 382.634 2456.1 318.349C2509.3 264.815 2569.35 233.473 2644.47 219.976C2656.12 217.917 2675.75 217.231 2706.12 217.688C2744.71 218.375 2753.61 219.289 2773.48 224.322C2842.43 241.938 2902.48 275.796 2957.28 328.186L2975.78 346.03L2957.28 371.195C2956.25 372.594 2955.2 374.012 2954.13 375.449L2801.14 606.517C2764.55 661.776 2690.1 676.913 2634.84 640.326L2609 623.221L2763.38 390.056C2756.95 387.479 2750.43 385.241 2743.79 383.32C2719.14 376.457 2678.95 376.457 2652.92 383.32C2601.55 397.276 2555.2 436.396 2532.36 485.125C2521.17 509.146 2516.38 532.71 2516.38 562.222C2516.15 594.936 2521.4 616.67 2536.47 646.868C2545.6 665.399 2550.63 672.033 2570.26 691.708C2590.59 712.069 2595.84 715.958 2617.07 726.481C2648.12 741.809 2665.93 746.156 2699.27 746.156C2739 746.156 2769.37 735.862 2809.78 708.866C2829.65 695.597 2868.46 658.765 2887.87 634.515C2910.25 606.833 2937.19 565.425 2952.94 534.083C3044.05 353.58 3167.8 244.226 3307.77 219.976Z" fill="#CCFF33"/>
<path d="M4088.92 1138.17V1017.48H4115.32V1177.78H4090.07L3965.68 1057.33V1177.78H3939.27V1017.48H3964.52L4088.92 1138.17Z" fill="#020202"/>
<path d="M3450.51 1017.48H3485.49C3538.77 1017.48 3570.74 1049.68 3570.74 1099.49V1099.72C3570.74 1149.99 3538.77 1181.95 3485.49 1181.95H3450.51C3397.47 1181.95 3365.5 1149.99 3365.5 1099.72V1099.49C3365.5 1049.68 3397.47 1017.48 3450.51 1017.48ZM3450.51 1157.4H3485.49C3522.79 1157.4 3544.1 1135.16 3544.1 1099.72V1099.49C3544.1 1064.28 3522.79 1042.04 3485.49 1042.04H3450.51C3413.45 1042.04 3392.14 1064.28 3392.14 1099.49V1099.72C3392.14 1135.16 3413.45 1157.4 3450.51 1157.4Z" fill="#020202"/>
<path d="M2996.97 1177.78H2970.1V1017.48H2996.97V1177.78Z" fill="#020202"/>
<path d="M2436.41 1017.48H2601.58V1042.73H2532.54V1177.78H2505.67V1042.73H2436.41V1017.48Z" fill="#020202"/>
<path d="M1981.25 1017.48L2067.88 1177.78H2039.16L2019.7 1140.72H1915.46L1896 1177.78H1867.28L1953.68 1017.48H1981.25ZM2008.12 1117.79L1967.58 1042.96L1926.81 1117.79H2008.12Z" fill="#020202"/>
<path d="M1498.74 1036.48L1483.45 1056.17C1471.87 1045.98 1456.81 1042.04 1438.28 1042.04H1405.39C1369.02 1042.04 1347.01 1064.74 1347.01 1099.49V1099.72C1347.25 1134.7 1369.02 1157.4 1405.39 1157.4H1438.28C1457.74 1157.4 1472.33 1153 1483.45 1143.27L1498.74 1162.96C1483.45 1176.39 1464.23 1181.95 1438.28 1181.95H1405.39C1352.11 1181.95 1320.37 1149.99 1320.37 1099.72V1099.49C1320.37 1049.45 1352.11 1017.48 1405.39 1017.48H1438.28C1463.07 1017.48 1483.22 1022.58 1498.74 1036.48Z" fill="#020202"/>
<path d="M831.617 1017.48H866.596C919.875 1017.48 951.842 1049.68 951.842 1099.49V1099.72C951.842 1149.99 919.875 1181.95 866.596 1181.95H831.617C778.57 1181.95 746.603 1149.99 746.603 1099.72V1099.49C746.603 1049.68 778.57 1017.48 831.617 1017.48ZM831.617 1157.4H866.596C903.891 1157.4 925.203 1135.16 925.203 1099.72V1099.49C925.203 1064.28 903.891 1042.04 866.596 1042.04H831.617C794.554 1042.04 773.242 1064.28 773.242 1099.49V1099.72C773.242 1135.16 794.554 1157.4 831.617 1157.4Z" fill="#020202"/>
<path d="M230.28 1017.48H257.151V1152.3H378.071V1177.78H230.28V1017.48Z" fill="#020202"/>
</svg>
