<svg width="2010" height="2010" viewBox="0 0 2010 2010" fill="none" xmlns="http://www.w3.org/2000/svg">
<rect width="2010" height="2010" rx="363" fill="#020202"/>
<path d="M1283.88 662.738C1310.14 658.163 1377.95 659.536 1403.75 665.255C1441.65 673.491 1489.83 692.937 1518.83 711.696C1585.27 754.248 1638.24 822.195 1663.13 896.317C1676.15 935.438 1680.71 969.525 1679.34 1015.28C1679.2 1019.71 1679.01 1024.02 1678.77 1028.22V1348.65H1520.83V1296.3C1488 1317.94 1452.43 1332.8 1410.6 1342.88C1378.41 1350.66 1319.5 1352.72 1285.93 1347.46C1212.41 1335.56 1141.17 1298.73 1077.7 1239.48L1058.97 1221.86L1066.96 1211.11C1084.55 1188 1118.8 1134.93 1133.18 1108.62L1148.48 1080.71L1171.54 1104.73C1200.08 1134.7 1227.02 1155.29 1256.48 1169.7C1288.67 1185.49 1303.29 1188.92 1336.39 1188.69C1369.04 1188.69 1389.37 1183.89 1416.77 1169.93C1453.75 1151.4 1481.61 1123.26 1499.65 1086.2C1514.49 1055.54 1518.6 1037.7 1518.6 1004.98C1518.6 973.414 1514.49 955.112 1501.02 926.058C1477.27 875.499 1434.58 840.496 1378.63 825.168C1356.03 818.991 1314.25 819.449 1291.18 826.083C1229.76 843.699 1166.29 898.147 1112.86 979.591C1104.41 992.173 1087.97 1021 1076.33 1043.19C1052.58 1089.17 1034.31 1119.14 1010.57 1151.17C927.684 1263.5 831.1 1329.84 725.612 1347.23C693.189 1352.72 632.226 1350.43 600.031 1342.88C534.273 1327.33 481.3 1297.82 434.265 1250.92C405.495 1222.32 390.653 1202.87 373.985 1172.68C342.704 1116.4 328.776 1056.46 331.288 991.258C334.941 901.121 368.05 825.397 432.21 761.111C485.411 707.578 545.461 676.236 620.581 662.738C632.226 660.679 651.863 659.994 682.23 660.451C720.818 661.137 729.723 662.052 749.587 667.085C818.542 684.701 878.594 718.559 933.393 770.948L951.887 788.793L933.393 813.958C932.361 815.359 931.306 816.78 930.232 818.22L777.249 1049.28C740.662 1104.54 666.205 1119.68 610.945 1083.09L585.11 1065.98L739.487 832.818C733.055 830.242 726.539 828.004 719.904 826.083C695.245 819.22 655.059 819.22 629.029 826.083C577.655 840.038 531.305 879.159 508.472 927.888C497.284 951.909 492.488 975.473 492.488 1004.98C492.26 1037.7 497.511 1059.43 512.581 1089.63C521.714 1108.16 526.738 1114.8 546.374 1134.47C566.695 1154.83 571.947 1158.72 593.182 1169.24C624.234 1184.57 642.044 1188.92 675.38 1188.92C715.109 1188.92 745.477 1178.62 785.892 1151.63C805.756 1138.36 844.572 1101.53 863.98 1077.28C886.357 1049.6 913.299 1008.19 929.054 976.846C1020.16 796.343 1143.91 686.988 1283.88 662.738Z" fill="#CCFF33"/>
</svg>
